<svg width="89" height="18" viewBox="0 0 89 18" fill="none" xmlns="http://www.w3.org/2000/svg">
<path fill-rule="evenodd" clip-rule="evenodd" d="M44.2216 11.1209L41.9112 9.76289L41.7395 10.0289C41.2129 10.8473 40.4931 11.2626 39.6012 11.2619C38.0733 11.2611 36.9214 10.1204 36.9221 8.60854C36.9233 7.09701 38.076 5.95786 39.6043 5.95862C40.5089 5.95938 41.1883 6.35227 41.743 7.19618L41.9154 7.45836L44.2366 6.09731L44.0361 5.81005C42.9272 4.22101 41.478 3.44853 39.6058 3.44739C36.0667 3.44587 34.1555 6.10415 34.1543 8.60664C34.1528 11.1095 36.0606 13.7704 39.5997 13.7723C41.4031 13.7731 43.1042 12.8661 44.0403 11.4044L44.2216 11.1209Z" fill="#C01818"/>
<path fill-rule="evenodd" clip-rule="evenodd" d="M50.6679 5.49095L51.9608 8.70247L49.357 8.70057L50.6679 5.49095ZM44.1064 13.7739L47.3006 13.7758L48.2497 11.4401L53.0437 11.4424L53.9901 13.7792L57.1982 13.7811L51.4758 0.0918519L48.6265 0.090332L49.3851 1.90507L44.1064 13.7739Z" fill="#C01818"/>
<path fill-rule="evenodd" clip-rule="evenodd" d="M58.5202 13.7823L61.3234 13.7838L61.3269 7.64006L63.1544 7.64158L63.156 5.06424L61.3284 5.0631L61.3288 3.84491C61.3288 3.32207 61.6829 2.76693 62.3386 2.76731C62.6989 2.76769 62.9163 2.82849 63.1333 2.92044L63.4452 3.05343L64.6098 0.538401L64.2741 0.402752C63.7532 0.191488 63.0277 0.115493 62.5218 0.115113C61.2504 0.114353 60.203 0.525482 59.4909 1.30366C58.8694 1.98305 58.5268 2.92804 58.526 3.96384L58.5252 5.0612L57.2877 5.06082L57.2861 7.63854L58.5241 7.63892L58.5202 13.7823Z" fill="#C01818"/>
<path fill-rule="evenodd" clip-rule="evenodd" d="M20.9395 0.0118408V13.7615L23.985 13.7634L23.9896 5.90254L26.9414 8.07825L29.8959 5.90254V13.7668L32.9372 13.7683L32.9449 0.0118408L26.9437 4.49778L20.9395 0.0118408Z" fill="#C01818"/>
<path fill-rule="evenodd" clip-rule="evenodd" d="M67.0227 7.36847C67.3887 6.43071 68.1785 5.88317 69.1986 5.88355C70.2296 5.88393 71.0342 6.42045 71.461 7.37075L67.0227 7.36847ZM69.4677 3.4939C65.9397 3.492 64.0338 6.14344 64.0322 8.63833C64.0311 11.134 65.9335 13.7866 69.4619 13.7885H69.4634H69.4657C71.0836 13.7714 72.6008 13.0418 73.7754 11.7267L71.4892 10.493C70.903 11.0869 70.1913 11.3992 69.4054 11.3988C68.2543 11.3981 67.2333 10.6389 66.9664 9.64639L74.59 9.65057L74.5904 8.96548C74.5927 5.19351 71.5963 3.49542 69.4677 3.4939Z" fill="#C01818"/>
<path fill-rule="evenodd" clip-rule="evenodd" d="M78.4817 7.37596C78.8474 6.43781 79.6367 5.89027 80.6573 5.89065C81.6886 5.89141 82.4933 6.42755 82.92 7.37824L78.4817 7.37596ZM80.9262 3.50122C77.3979 3.49932 75.4927 6.15038 75.4912 8.64527C75.4897 11.1409 77.3917 13.7935 80.9209 13.7958H80.9224H80.9239C82.5425 13.7783 84.0597 13.0488 85.2339 11.7337L82.9478 10.5003C82.3612 11.0942 81.6499 11.4065 80.8644 11.4061C79.7129 11.4054 78.6919 10.6462 78.4254 9.65371L86.0486 9.65751L86.0494 8.97281C86.0517 5.20083 83.0549 3.50236 80.9262 3.50122Z" fill="#C01818"/>
<path fill-rule="evenodd" clip-rule="evenodd" d="M85.6904 2.96533H86.8773V3.18458H86.411V4.4153H86.1548V3.18458H85.6904V2.96533Z" fill="#C01818"/>
<path fill-rule="evenodd" clip-rule="evenodd" d="M87.2158 2.96533H87.5769L87.9813 4.10069H87.9856L88.3796 2.96533H88.7369V4.4153H88.4926V3.29629H88.4883L88.0824 4.4153H87.8707L87.4639 3.29629H87.4601V4.4153H87.2158V2.96533Z" fill="#C01818"/>
<path fill-rule="evenodd" clip-rule="evenodd" d="M3.08587 11.7405V4.77332L7.52877 6.80579V3.44418L0 0.00012207V13.689L7.52877 17.1361V13.7741L3.08587 11.7405Z" fill="#C01818"/>
<path fill-rule="evenodd" clip-rule="evenodd" d="M11.9712 11.7403V4.7732L7.52832 6.80566V3.44406L15.0571 0V13.6888L7.52832 17.1359V13.774L11.9712 11.7403Z" fill="#C01818"/>
</svg>
