<svg width="70" height="14" viewBox="0 0 70 14" fill="none" xmlns="http://www.w3.org/2000/svg">
<path fill-rule="evenodd" clip-rule="evenodd" d="M34.3965 8.64945L32.5996 7.59321L32.466 7.80008C32.0565 8.43666 31.4966 8.75968 30.8029 8.75909C29.6145 8.7585 28.7186 7.87131 28.7192 6.69538C28.7201 5.51975 29.6166 4.63374 30.8053 4.63433C31.5089 4.63492 32.0373 4.9405 32.4687 5.59688L32.6029 5.8008L34.4082 4.7422L34.2522 4.51878C33.3898 3.28286 32.2626 2.68204 30.8065 2.68115C28.0539 2.67997 26.5673 4.74752 26.5664 6.6939C26.5652 8.64058 28.0491 10.7102 30.8017 10.7117C32.2043 10.7123 33.5275 10.0068 34.2555 8.86991L34.3965 8.64945Z" fill="white"/>
<path fill-rule="evenodd" clip-rule="evenodd" d="M39.4115 4.27081L40.4171 6.76865L38.3919 6.76717L39.4115 4.27081ZM34.3086 10.7131L36.793 10.7145L37.5312 8.89789L41.2598 8.89966L41.9959 10.7172L44.491 10.7187L40.0403 0.0714946L37.8242 0.0703125L38.4143 1.48178L34.3086 10.7131Z" fill="white"/>
<path fill-rule="evenodd" clip-rule="evenodd" d="M45.5185 10.7194L47.6987 10.7206L47.7014 5.94209L49.1228 5.94328L49.124 3.93868L47.7026 3.93779L47.7029 2.99031C47.7029 2.58366 47.9783 2.15188 48.4883 2.15218C48.7685 2.15247 48.9376 2.19976 49.1064 2.27128L49.349 2.37471L50.2548 0.41858L49.9937 0.313075C49.5886 0.148758 49.0242 0.0896518 48.6308 0.0893563C47.6419 0.0887652 46.8273 0.408532 46.2734 1.01378C45.79 1.5422 45.5235 2.27719 45.5229 3.08281L45.5223 3.93631L44.5598 3.93602L44.5586 5.94091L45.5214 5.94121L45.5185 10.7194Z" fill="white"/>
<path fill-rule="evenodd" clip-rule="evenodd" d="M16.2852 0.00927734V10.7034L18.6539 10.7049L18.6575 4.59093L20.9534 6.28315L23.2513 4.59093V10.7076L25.6168 10.7088L25.6227 0.00927734L20.9551 3.49834L16.2852 0.00927734Z" fill="white"/>
<path fill-rule="evenodd" clip-rule="evenodd" d="M52.128 5.73085C52.4127 5.00147 53.027 4.57561 53.8204 4.5759C54.6223 4.5762 55.2481 4.99349 55.58 5.73262L52.128 5.73085ZM54.0283 2.71729C51.2844 2.71581 49.802 4.77804 49.8008 6.71851C49.7999 8.65957 51.2796 10.7227 54.0239 10.7242H54.025H54.0268C55.2852 10.7109 56.4652 10.1434 57.3788 9.1206L55.6006 8.16101C55.1447 8.62292 54.5912 8.86585 53.9799 8.86556C53.0846 8.86497 52.2905 8.27449 52.0829 7.50256L58.0124 7.50581L58.0127 6.97296C58.0145 4.03921 55.684 2.71847 54.0283 2.71729Z" fill="white"/>
<path fill-rule="evenodd" clip-rule="evenodd" d="M61.0421 5.73681C61.3265 5.00714 61.9404 4.58127 62.7342 4.58157C63.5363 4.58216 64.1622 4.99916 64.4941 5.73858L61.0421 5.73681ZM62.9421 2.72315C60.1978 2.72167 58.716 4.7836 58.7148 6.72407C58.7136 8.66513 60.193 10.7283 62.9379 10.73H62.9391H62.9403C64.1992 10.7164 65.3793 10.149 66.2925 9.12617L64.5144 8.16687C64.0582 8.62878 63.5049 8.87171 62.894 8.87142C61.9984 8.87083 61.2043 8.28035 60.997 7.50842L66.9262 7.51137L66.9268 6.97882C66.9285 4.04507 64.5977 2.72403 62.9421 2.72315Z" fill="white"/>
<path fill-rule="evenodd" clip-rule="evenodd" d="M66.6445 2.30615H67.5677V2.47667H67.205V3.43391H67.0057V2.47667H66.6445V2.30615Z" fill="white"/>
<path fill-rule="evenodd" clip-rule="evenodd" d="M67.8359 2.30615H68.1168L68.4313 3.18921H68.4346L68.7411 2.30615H69.019V3.43391H68.829V2.56356H68.8257L68.5099 3.43391H68.3453L68.0289 2.56356H68.0259V3.43391H67.8359V2.30615Z" fill="white"/>
<path fill-rule="evenodd" clip-rule="evenodd" d="M2.40012 9.13149V3.71259L5.85571 5.2934V2.67882L0 0.000103953V10.647L5.85571 13.3281V10.7132L2.40012 9.13149Z" fill="white"/>
<path fill-rule="evenodd" clip-rule="evenodd" d="M9.31132 9.13138V3.71249L5.85571 5.2934V2.67882L11.7114 0V10.6469L5.85571 13.3281V10.7132L9.31132 9.13138Z" fill="white"/>
</svg>
