<svg width="21" height="20" viewBox="0 0 21 20" fill="none" xmlns="http://www.w3.org/2000/svg">
<path fill-rule="evenodd" clip-rule="evenodd" d="M4.47485 3.26172H16.4922C16.6341 3.26172 16.7726 3.2765 16.9061 3.3046L12.5558 7.46046C11.3963 8.56815 9.57074 8.56815 8.41124 7.46046L4.06097 3.3046C4.19451 3.2765 4.33295 3.26172 4.47485 3.26172ZM2.57104 4.6472C2.50859 4.84081 2.47485 5.04733 2.47485 5.26172V12.9077C2.47485 14.0122 3.37028 14.9077 4.47485 14.9077H16.4922C17.5968 14.9077 18.4922 14.0122 18.4922 12.9077V5.26172C18.4922 5.04733 18.4585 4.84081 18.396 4.6472L13.9374 8.90662C12.0049 10.7528 8.96221 10.7528 7.02971 8.90662L2.57104 4.6472ZM0.474854 5.26172C0.474854 3.05258 2.26571 1.26172 4.47485 1.26172H16.4922C18.7014 1.26172 20.4922 3.05258 20.4922 5.26172V12.9077C20.4922 15.1168 18.7014 16.9077 16.4922 16.9077H4.47485C2.26571 16.9077 0.474854 15.1168 0.474854 12.9077V5.26172Z" fill="#6E6E6E"/>
</svg>
