<svg width="21" height="21" viewBox="0 0 21 21" fill="none" xmlns="http://www.w3.org/2000/svg">
<path fill-rule="evenodd" clip-rule="evenodd" d="M4.42646 2.50131L2.97979 3.88333C2.45554 4.38415 2.29453 4.90195 2.41824 5.31871C2.8077 6.63073 4.00972 9.17423 7.72307 12.7216C11.4364 16.269 14.0989 17.4173 15.4723 17.7894C15.9085 17.9076 16.4506 17.7537 16.9748 17.2529L18.4215 15.8709L15.4534 13.0355L13.1028 13.728L13.1026 13.7281L13.1017 13.7284L13.0978 13.7295L13.0817 13.7342C13.068 13.738 13.0449 13.7444 13.0164 13.7509C12.3882 13.8939 11.0595 13.755 8.85044 11.6446C6.64136 9.53427 6.4959 8.26498 6.64566 7.6648C6.65245 7.63759 6.6591 7.61552 6.66317 7.60243L6.66803 7.58712L6.66924 7.5834L6.66952 7.58252L6.6696 7.58228L7.3945 5.33672L4.42646 2.50131ZM3.34184 0.774401C3.94086 0.202152 4.91206 0.202153 5.51108 0.774401L9.0585 4.16329C9.4605 4.54733 9.60718 5.11227 9.43964 5.63127L8.6567 8.05661C8.68979 8.23871 8.90927 8.93777 10.2966 10.2631C11.6839 11.5884 12.4157 11.7981 12.6063 11.8297L15.1451 11.0818C15.6884 10.9217 16.2798 11.0618 16.6818 11.4459L20.2292 14.8348C20.8282 15.407 20.8282 16.3348 20.2292 16.9071L18.421 18.6345C17.592 19.4264 16.3192 20.0496 14.9143 19.669C13.1341 19.1868 10.1788 17.8307 6.27691 14.1032C2.37503 10.3757 0.955488 7.55244 0.45065 5.85173C0.0522537 4.5096 0.704639 3.29375 1.53363 2.5018L3.34184 0.774401ZM12.4942 11.8628C12.4941 11.8628 12.4941 11.8628 12.4943 11.8627L12.4942 11.8628ZM12.6468 11.8348C12.6537 11.8345 12.6573 11.8348 12.6573 11.8349C12.6573 11.8351 12.6538 11.8352 12.6468 11.8348ZM8.65122 8.00789C8.6514 8.00791 8.65165 8.01129 8.65142 8.01797C8.65093 8.01121 8.65104 8.00787 8.65122 8.00789ZM8.62211 8.16373L8.62216 8.16357L8.62211 8.16373Z" fill="#6E6E6E"/>
</svg>
