<svg width="140" height="162" viewBox="0 0 140 162" fill="none" xmlns="http://www.w3.org/2000/svg">
<g clip-path="url(#clip0_6812_4176)">
<ellipse cx="80.6168" cy="79.224" rx="80.6168" ry="79.224" transform="matrix(-0.866028 -0.499995 -0.866028 0.499995 239.854 119.338)" stroke="#6476FF" stroke-width="0.25"/>
<ellipse cx="80.6168" cy="79.224" rx="80.6168" ry="79.224" transform="matrix(-0.866028 -0.499995 -0.866028 0.499995 239.854 112.116)" fill="#E6EBFF"/>
<path d="M124.398 121.896L59.4807 84.276L96.9015 62.6967C98.0121 62.0561 99.8092 62.0561 100.92 62.6967L161.985 97.9056C163.096 98.5462 163.096 99.5802 161.985 100.221L124.403 121.891L124.398 121.896Z" fill="#C4D1FD"/>
<path fill-rule="evenodd" clip-rule="evenodd" d="M123.414 120.789L59.7737 84.0923L22.1913 105.762C21.0808 106.403 21.0808 107.437 22.1913 108.078L83.257 143.292C84.3676 143.932 86.1647 143.932 87.2752 143.292L124.858 121.621V120.84L123.449 120.683L123.419 120.789H123.414Z" fill="#FF6AA1"/>
<path d="M59.7788 83.7031L124.858 121.232L87.2752 142.902C86.1647 143.543 84.3676 143.543 83.257 142.902L22.1913 107.689C21.0808 107.048 21.0808 106.014 22.1913 105.373L59.7737 83.7031H59.7788Z" fill="#F9F1EC"/>
<path d="M59.7729 37.4845C59.7729 35.7241 61.0097 35.0128 62.5342 35.8905L122.848 70.6656C123.958 71.3062 124.857 72.8598 124.857 74.1411V121.229L59.778 83.6999V37.4795L59.7729 37.4845Z" fill="#EFDDD7"/>
<rect width="66.4399" height="21.7302" rx="1.944" transform="matrix(0.866025 0.5 -0.866026 0.5 60.3467 87.5366)" stroke="#FE5065" stroke-width="0.25"/>
<rect width="25.2125" height="14.7181" rx="1.944" transform="matrix(0.866025 0.5 -0.866026 0.5 57.2344 109.437)" stroke="#FE5065" stroke-width="0.25"/>
<path d="M57.2109 89.3486L114.75 122.569" stroke="#FE5065" stroke-width="0.25"/>
<path d="M54.0742 91.1602L111.613 124.38" stroke="#FE5065" stroke-width="0.25"/>
<path d="M50.937 92.9692L108.476 126.189" stroke="#FE5065" stroke-width="0.25"/>
<path d="M47.8013 94.7808L105.34 128.001" stroke="#FE5065" stroke-width="0.25"/>
<path d="M44.6655 96.5923L102.204 129.812" stroke="#FE5065" stroke-width="0.25"/>
<path d="M65.9585 90.7769L62.822 92.5877" stroke="#FE5065" stroke-width="0.25"/>
<path d="M65.5068 108.625L62.3703 110.436" stroke="#FE5065" stroke-width="0.25"/>
<path d="M81.5391 117.881L78.4026 119.692" stroke="#FE5065" stroke-width="0.25"/>
<path d="M112.186 117.467L109.049 119.278" stroke="#FE5065" stroke-width="0.25"/>
<g style="mix-blend-mode:multiply" opacity="0.7">
<path d="M80.6382 95.6914L122.072 119.613L108.858 127.242C108.51 127.443 107.944 127.443 107.596 127.242L66.7935 103.685L80.6382 95.6914Z" fill="#FFBEBE"/>
</g>
<g style="mix-blend-mode:multiply" opacity="0.7">
<path d="M80.478 111.923L99.1354 122.695L93.6201 125.879C93.2715 126.08 92.7061 126.08 92.3575 125.879L74.3314 115.472L80.478 111.923Z" fill="#FFBEBE"/>
</g>
<path d="M47.5186 49.0491C47.5186 47.3776 48.6929 46.7022 50.1404 47.5356L107.41 80.5553C108.464 81.1636 109.317 82.6388 109.317 83.8554V126.296C109.317 127.305 108.225 127.937 107.35 127.432L49.6567 94.162C48.3367 93.4008 47.5234 91.9929 47.5234 90.4691V49.0443L47.5186 49.0491Z" fill="white"/>
<mask id="mask0_6812_4176" style="mask-type:alpha" maskUnits="userSpaceOnUse" x="47" y="47" width="63" height="81">
<path d="M47.5186 49.0496C47.5186 47.378 48.6929 46.7027 50.1404 47.5361L107.41 80.5558C108.464 81.1641 109.317 82.6393 109.317 83.8559V126.296C109.317 127.306 108.225 127.937 107.35 127.433L49.6567 94.1625C48.3367 93.4013 47.5234 91.9933 47.5234 90.4696V49.0448L47.5186 49.0496Z" fill="white"/>
</mask>
<g mask="url(#mask0_6812_4176)">
<rect width="67.0616" height="17.7604" rx="0.729" transform="matrix(0.866025 0.5 -2.20305e-08 1 49.2192 54.791)" fill="#E8E8E8"/>
<rect width="27.4981" height="4.16801" rx="0.729" transform="matrix(0.866025 0.5 -2.20305e-08 1 49.2192 74.1538)" fill="#E8E8E8"/>
<rect width="27.4981" height="12.1111" rx="0.729" transform="matrix(0.866025 0.5 -2.20305e-08 1 49.2192 79.9321)" fill="#E8E8E8"/>
<rect width="38.1606" height="17.8912" rx="0.729" transform="matrix(0.866025 0.5 -2.20305e-08 1 74.2485 88.6035)" fill="#E8E8E8"/>
<path d="M74.2485 89.3325C74.2485 88.9299 74.5312 88.7667 74.8799 88.968L83.7255 94.0751L83.7255 111.966L74.8799 106.859C74.5312 106.658 74.2485 106.168 74.2485 105.766L74.2485 89.3325Z" fill="#E8E8E8"/>
<path d="M49.2192 55.5229C49.2192 55.1203 49.5019 54.9571 49.8506 55.1584L68.4163 65.8773L68.4163 83.6348L49.8506 72.9159C49.5019 72.7146 49.2192 72.225 49.2192 71.8224L49.2192 55.5229Z" fill="#E8E8E8"/>
<path d="M43.5303 49.2837L113.222 89.5196" stroke="#FF8090" stroke-width="0.25"/>
</g>
<ellipse cx="0.778886" cy="0.778886" rx="0.778886" ry="0.778886" transform="matrix(0.866025 0.5 -2.20305e-08 1 49.4629 49.1235)" stroke="#FF8090" stroke-width="0.25"/>
<ellipse cx="0.778886" cy="0.778886" rx="0.778886" ry="0.778886" transform="matrix(0.866025 0.5 -2.20305e-08 1 51.583 50.3467)" stroke="#FF8090" stroke-width="0.25"/>
<ellipse cx="0.778886" cy="0.778886" rx="0.778886" ry="0.778886" transform="matrix(0.866025 0.5 -2.20305e-08 1 53.7036 51.5703)" stroke="#FF8090" stroke-width="0.25"/>
<g style="mix-blend-mode:multiply" opacity="0.7">
<path d="M77.6333 77.624C77.6333 75.9672 78.7965 75.2956 80.2313 76.124L97.4012 86.0371C98.3578 86.5893 99.1333 87.9325 99.1333 89.0371L99.1333 122.696L77.6333 110.283L77.6333 77.624Z" fill="#FFBEBE"/>
</g>
<path d="M72.5 81.1807C72.5 79.5238 73.6632 78.8522 75.0981 79.6807L92.5652 89.7653C93.5218 90.3176 94.2972 91.6607 94.2972 92.7653L94.2972 124.246C94.2972 125.903 93.134 126.574 91.6991 125.746L74.2321 115.661C73.2755 115.109 72.5 113.766 72.5 112.661L72.5 81.1807Z" fill="url(#paint0_linear_6812_4176)"/>
<path d="M88.5 94.0922V104.5L83.3908 104.152L78.0024 98.91L78 88.5L83.3896 93.7441L88.5 94.0922Z" fill="#F0F3FF"/>
<rect opacity="0.5" width="16.7432" height="3.5" rx="1" transform="matrix(0.866025 0.5 -2.20305e-08 1 76 103.5)" fill="#A5B0FF"/>
<rect opacity="0.5" width="16.7432" height="3.5" rx="1" transform="matrix(0.866025 0.5 -2.20305e-08 1 76 109)" fill="#A5B0FF"/>
</g>
<defs>
<linearGradient id="paint0_linear_6812_4176" x1="74" y1="83.7426" x2="70.105" y2="124.377" gradientUnits="userSpaceOnUse">
<stop stop-color="#4459FF"/>
<stop offset="1" stop-color="#6C47FF"/>
</linearGradient>
<clipPath id="clip0_6812_4176">
<rect width="140" height="162" fill="white"/>
</clipPath>
</defs>
</svg>
