<svg width="303" height="238" viewBox="0 0 303 238" fill="none" xmlns="http://www.w3.org/2000/svg">
<g clip-path="url(#clip0_6812_5481)">
<rect width="303" height="237" transform="translate(0 0.5)" fill="white"/>
<ellipse cx="120.925" cy="118.836" rx="120.925" ry="118.836" transform="matrix(-0.866028 -0.499995 -0.866028 0.499995 359.78 147.507)" stroke="#6476FF" stroke-width="0.375"/>
<ellipse cx="120.925" cy="118.836" rx="120.925" ry="118.836" transform="matrix(-0.866028 -0.499995 -0.866028 0.499995 359.78 136.674)" fill="#E6EBFF"/>
<path d="M186.597 151.344L89.221 94.9138L145.352 62.5448C147.018 61.5839 149.714 61.5839 151.38 62.5448L242.978 115.358C244.644 116.319 244.644 117.87 242.978 118.831L186.605 151.336L186.597 151.344Z" fill="#C4D1FD"/>
<path fill-rule="evenodd" clip-rule="evenodd" d="M185.121 149.684L89.6606 94.6387L33.287 127.144C31.6211 128.105 31.6211 129.656 33.287 130.617L124.886 183.438C126.551 184.399 129.247 184.399 130.913 183.438L187.286 150.932V149.76L185.174 149.525L185.128 149.684H185.121Z" fill="#FF6AA1"/>
<path d="M89.6681 94.0547L187.286 150.349L130.913 182.854C129.247 183.815 126.551 183.815 124.886 182.854L33.287 130.033C31.6211 129.072 31.6211 127.521 33.287 126.56L89.6606 94.0547H89.6681Z" fill="#F9F1EC"/>
<path d="M89.6592 24.7268C89.6592 22.0861 91.5143 21.0192 93.8011 22.3358L184.271 74.4984C185.937 75.4593 187.285 77.7897 187.285 79.7116V150.344L89.6668 94.0499V24.7192L89.6592 24.7268Z" fill="#EFDDD7"/>
<rect width="99.6599" height="32.5953" rx="2.916" transform="matrix(0.866025 0.5 -0.866026 0.5 90.5195 99.8052)" stroke="#FE5065" stroke-width="0.375"/>
<rect width="37.8187" height="22.0771" rx="2.916" transform="matrix(0.866025 0.5 -0.866026 0.5 85.8511 132.655)" stroke="#FE5065" stroke-width="0.375"/>
<path d="M85.8149 102.523L172.123 152.353" stroke="#FE5065" stroke-width="0.375"/>
<path d="M81.1099 105.24L167.418 155.07" stroke="#FE5065" stroke-width="0.375"/>
<path d="M76.4048 107.954L162.713 157.784" stroke="#FE5065" stroke-width="0.375"/>
<path d="M71.7007 110.671L158.009 160.501" stroke="#FE5065" stroke-width="0.375"/>
<path d="M66.9971 113.388L153.305 163.218" stroke="#FE5065" stroke-width="0.375"/>
<path d="M98.9365 104.666L94.2318 107.382" stroke="#FE5065" stroke-width="0.375"/>
<path d="M98.2593 131.438L93.5545 134.154" stroke="#FE5065" stroke-width="0.375"/>
<path d="M122.307 145.322L117.602 148.038" stroke="#FE5065" stroke-width="0.375"/>
<path d="M168.277 144.7L163.573 147.416" stroke="#FE5065" stroke-width="0.375"/>
<g style="mix-blend-mode:multiply" opacity="0.7">
<path d="M120.957 112.037L183.107 147.92L163.287 159.363C162.764 159.665 161.916 159.665 161.393 159.363L100.19 124.027L120.957 112.037Z" fill="#FFBEBE"/>
</g>
<g style="mix-blend-mode:multiply" opacity="0.7">
<path d="M120.717 136.385L148.703 152.543L140.43 157.319C139.907 157.621 139.059 157.621 138.536 157.319L111.497 141.708L120.717 136.385Z" fill="#FFBEBE"/>
</g>
<path d="M71.2778 42.0737C71.2778 39.5663 73.0393 38.5533 75.2107 39.8034L161.114 89.333C162.696 90.2454 163.976 92.4582 163.976 94.2831V157.944C163.976 159.458 162.337 160.405 161.026 159.648L74.4851 109.743C72.505 108.601 71.285 106.489 71.285 104.204V42.0665L71.2778 42.0737Z" fill="white"/>
<mask id="mask0_6812_5481" style="mask-type:alpha" maskUnits="userSpaceOnUse" x="71" y="39" width="93" height="121">
<path d="M71.2783 42.0742C71.2783 39.5668 73.0398 38.5538 75.2111 39.8039L161.115 89.3335C162.697 90.2459 163.977 92.4587 163.977 94.2836V157.944C163.977 159.459 162.338 160.405 161.026 159.649L74.4856 109.743C72.5055 108.602 71.2855 106.49 71.2855 104.204V42.067L71.2783 42.0742Z" fill="white"/>
</mask>
<g mask="url(#mask0_6812_5481)">
<rect width="100.592" height="26.6407" rx="1.0935" transform="matrix(0.866025 0.5 -2.20305e-08 1 73.8296 50.6865)" fill="#E8E8E8"/>
<rect width="41.2471" height="6.25202" rx="1.0935" transform="matrix(0.866025 0.5 -2.20305e-08 1 73.8296 79.7305)" fill="#E8E8E8"/>
<rect width="41.2471" height="18.1666" rx="1.0935" transform="matrix(0.866025 0.5 -2.20305e-08 1 73.8296 88.3979)" fill="#E8E8E8"/>
<rect width="57.2409" height="26.8368" rx="1.0935" transform="matrix(0.866025 0.5 -2.20305e-08 1 111.374 101.405)" fill="#E8E8E8"/>
<path d="M111.374 102.499C111.374 101.895 111.798 101.65 112.321 101.952L125.59 109.613L125.59 136.449L112.321 128.789C111.798 128.487 111.374 127.753 111.374 127.149L111.374 102.499Z" fill="#E8E8E8"/>
<path d="M73.8296 51.7839C73.8296 51.18 74.2536 50.9352 74.7766 51.2372L102.625 67.3155L102.625 93.9516L74.7766 77.8733C74.2536 77.5713 73.8296 76.837 73.8296 76.2331L73.8296 51.7839Z" fill="#E8E8E8"/>
<path d="M65.2959 42.4253L169.833 102.779" stroke="#FF8090" stroke-width="0.375"/>
</g>
<ellipse cx="1.16833" cy="1.16833" rx="1.16833" ry="1.16833" transform="matrix(0.866025 0.5 -2.20305e-08 1 74.1943 42.1851)" stroke="#FF8090" stroke-width="0.375"/>
<ellipse cx="1.16833" cy="1.16833" rx="1.16833" ry="1.16833" transform="matrix(0.866025 0.5 -2.20305e-08 1 77.374 44.02)" stroke="#FF8090" stroke-width="0.375"/>
<ellipse cx="1.16833" cy="1.16833" rx="1.16833" ry="1.16833" transform="matrix(0.866025 0.5 -2.20305e-08 1 80.5552 45.8557)" stroke="#FF8090" stroke-width="0.375"/>
<g style="mix-blend-mode:multiply" opacity="0.7">
<path d="M116.45 84.936C116.45 82.4508 118.195 81.4434 120.347 82.686L146.102 97.5556C147.537 98.384 148.7 100.399 148.7 102.056L148.7 152.544L116.45 133.925L116.45 84.936Z" fill="#FFBEBE"/>
</g>
<path d="M108.75 90.2715C108.75 87.7862 110.495 86.7788 112.647 88.0215L138.848 103.148C140.283 103.977 141.446 105.992 141.446 107.648L141.446 154.869C141.446 157.355 139.701 158.362 137.549 157.119L111.348 141.992C109.913 141.164 108.75 139.149 108.75 137.492L108.75 90.2715Z" fill="url(#paint0_linear_6812_5481)"/>
<path d="M132.75 109.638V125.25L125.086 124.728L117.004 116.865L117 101.25L125.084 109.116L132.75 109.638Z" fill="#F0F3FF"/>
<rect opacity="0.5" width="25.1147" height="5.25" rx="1.5" transform="matrix(0.866025 0.5 -2.20305e-08 1 114 123.75)" fill="#A5B0FF"/>
<rect opacity="0.5" width="25.1147" height="5.25" rx="1.5" transform="matrix(0.866025 0.5 -2.20305e-08 1 114 132)" fill="#A5B0FF"/>
</g>
<defs>
<linearGradient id="paint0_linear_6812_5481" x1="111" y1="94.1144" x2="105.157" y2="155.066" gradientUnits="userSpaceOnUse">
<stop stop-color="#4459FF"/>
<stop offset="1" stop-color="#6C47FF"/>
</linearGradient>
<clipPath id="clip0_6812_5481">
<rect width="303" height="237" fill="white" transform="translate(0 0.5)"/>
</clipPath>
</defs>
</svg>
