<svg width="14" height="14" viewBox="0 0 14 14" fill="none" xmlns="http://www.w3.org/2000/svg">
<path fill-rule="evenodd" clip-rule="evenodd" d="M6.64583 13.2917C10.3162 13.2917 13.2917 10.3162 13.2917 6.64583C13.2917 2.97544 10.3162 0 6.64583 0C2.97544 0 0 2.97544 0 6.64583C0 10.3162 2.97544 13.2917 6.64583 13.2917ZM7.25 4.22917C7.25 4.56284 6.9795 4.83333 6.64583 4.83333C6.31216 4.83333 6.04167 4.56284 6.04167 4.22917C6.04167 3.89549 6.31216 3.625 6.64583 3.625C6.9795 3.625 7.25 3.89549 7.25 4.22917ZM7.25 6.04167V9.66667H6.04167V6.04167H7.25Z" fill="#6E6E6E"/>
</svg>
