<svg width="14" height="14" viewBox="0 0 14 14" fill="none" xmlns="http://www.w3.org/2000/svg">
<path d="M6.66699 0C10.3489 0 13.334 2.98509 13.334 6.66699C13.3337 10.3487 10.3487 13.333 6.66699 13.333C2.98526 13.333 0.000263669 10.3487 0 6.66699C0 2.98509 2.98509 1.93288e-07 6.66699 0ZM6.66602 5.72363L4.47168 3.52832L3.52832 4.47168L5.72363 6.66602L3.52832 8.8623L4 9.33301L4.47168 9.80469L6.66602 7.60938L8.8623 9.80469L9.33301 9.33301L9.80469 8.8623L7.60938 6.66602L9.80469 4.47168L9.33301 4L8.8623 3.52832L6.66602 5.72363Z" fill="#C01818"/>
</svg>
