<svg width="14" height="14" viewBox="0 0 14 14" fill="none" xmlns="http://www.w3.org/2000/svg">
<path d="M6.66699 0C10.3489 0 13.334 2.98509 13.334 6.66699C13.3337 10.3487 10.3487 13.333 6.66699 13.333C2.98526 13.333 0.000263669 10.3487 0 6.66699C0 2.98509 2.98509 1.93288e-07 6.66699 0ZM6.66797 8.66699C6.30004 8.66717 6.00115 8.96508 6.00098 9.33301C6.00098 9.70109 6.29993 9.99982 6.66797 10C7.03616 10 7.33496 9.7012 7.33496 9.33301C7.33478 8.96497 7.03605 8.66699 6.66797 8.66699ZM6.00098 3.33301V7.33301H7.33496V3.33301H6.00098Z" fill="#C24700"/>
</svg>
