<svg width="20" height="19" viewBox="0 0 20 19" fill="none" xmlns="http://www.w3.org/2000/svg">
<path fill-rule="evenodd" clip-rule="evenodd" d="M8.32642 12.3876L9.2038 13.2381C9.2038 13.2381 21.8372 5.33916 19.6875 0.222154C14.6983 -1.53255 6.45343 10.5719 6.45343 10.5719L7.62634 11.7089L6.25006 13.0656L6.94434 13.75L8.32642 12.3876ZM15.7808 5.80693C16.5942 5.80693 17.2535 5.15697 17.2535 4.35515C17.2535 3.55339 16.5942 2.90343 15.7808 2.90343C14.9674 2.90343 14.308 3.55339 14.308 4.35515C14.308 5.15697 14.9674 5.80693 15.7808 5.80693Z" fill="white"/>
<path fill-rule="evenodd" clip-rule="evenodd" d="M10.0001 14.0724L13.7501 11.25C13.7501 11.25 13.5814 16.5043 10.8748 18.75C10.7914 15.7975 10.0001 14.0724 10.0001 14.0724Z" fill="white"/>
<path fill-rule="evenodd" clip-rule="evenodd" d="M5.23664 10.6562L8.18819 7.00698C8.18819 7.00698 2.93119 6.99218 0.592408 9.61878C3.54024 9.80518 5.23664 10.6562 5.23664 10.6562Z" fill="white"/>
</svg>
