<svg width="95" height="72" viewBox="0 0 95 72" fill="none" xmlns="http://www.w3.org/2000/svg">
<rect x="0.5" y="0.5" width="82" height="62" rx="3.5" fill="#A4B5C7" stroke="#3E5165"/>
<path d="M40.0488 4.6781C40.2283 4.6781 40.3944 4.77423 40.4834 4.93005L44.1875 11.4261H77.8125C78.0886 11.4261 78.3125 11.65 78.3125 11.9261V20.7123C78.3125 20.9884 78.0886 21.2123 77.8125 21.2123H5.1875C5.05487 21.2123 4.92775 21.1596 4.83398 21.0658C4.74019 20.9718 4.68723 20.8441 4.6875 20.7113L4.70605 11.6537L4.71582 11.5531C4.76265 11.3255 4.96465 11.1547 5.20605 11.1547H17.5195L21.2207 4.92322C21.3108 4.7716 21.4741 4.67818 21.6504 4.6781H40.0488Z" fill="#D9E0E8" stroke="#3E5165" stroke-linecap="round" stroke-linejoin="round"/>
<path d="M74.3425 4.6781L74.4089 4.68298C74.5616 4.70345 74.698 4.79327 74.776 4.92908L78.2458 10.9701C78.3346 11.1248 78.3342 11.3157 78.2448 11.4701C78.1553 11.6242 77.9904 11.7191 77.8122 11.7191H44.0817C43.9022 11.7191 43.7361 11.6231 43.6471 11.4672L40.2009 5.42615C40.1126 5.27146 40.1134 5.08116 40.2028 4.92712C40.2923 4.77305 40.4572 4.6781 40.6354 4.6781H74.3425Z" fill="#B0B8C2" stroke="#3E5165" stroke-linecap="round" stroke-linejoin="round"/>
<path d="M56.6482 4.80347L60.5088 11.5472" stroke="#3E5165" stroke-linecap="round" stroke-linejoin="round"/>
<rect x="8.64867" y="14.6712" width="65.7083" height="3.45205" rx="1.72603" fill="white"/>
<path d="M78.3125 21.0753V55.8214C78.3125 57.2021 77.1932 58.3214 75.8125 58.3214H7.1875C5.80679 58.3214 4.6875 57.2021 4.6875 55.8214V21.0753H78.3125Z" fill="white" stroke="#3E5165"/>
<rect x="8.64583" y="25.0274" width="44.0938" height="29.3425" rx="1" fill="#E5E9F0"/>
<rect x="56.1979" y="25.0274" width="18.1562" height="10.3562" rx="1" fill="#E5E9F0"/>
<rect x="56.1979" y="38.8356" width="18.1562" height="1.72603" rx="0.863014" fill="#E5E9F0"/>
<rect x="56.1979" y="43.4384" width="18.1562" height="1.72603" rx="0.863014" fill="#E5E9F0"/>
<rect x="56.1979" y="48.0411" width="18.1562" height="1.72603" rx="0.863014" fill="#E5E9F0"/>
<rect x="56.1979" y="52.6439" width="18.1562" height="1.72603" rx="0.863014" fill="#E5E9F0"/>
<rect x="5.1875" y="20.7123" width="72.625" height="2.58904" fill="white"/>
<path d="M6.91699 4.6781C8.14697 4.67828 9.14527 5.67374 9.14551 6.90369C9.14551 8.13384 8.14712 9.13007 6.91699 9.13025C5.68671 9.13025 4.6875 8.13394 4.6875 6.90369C4.68774 5.67363 5.68686 4.6781 6.91699 4.6781Z" fill="#F4F7FA" stroke="#3E5165"/>
<path d="M13.8337 4.6781C15.0636 4.67828 16.0619 5.67374 16.0622 6.90369C16.0622 8.13384 15.0638 9.13007 13.8337 9.13025C12.6034 9.13025 11.6042 8.13394 11.6042 6.90369C11.6044 5.67363 12.6035 4.6781 13.8337 4.6781Z" fill="#F4F7FA" stroke="#3E5165"/>
<path fill-rule="evenodd" clip-rule="evenodd" d="M77 72C86.9411 72 95 63.9411 95 54C95 44.0589 86.9411 36 77 36C67.0589 36 59 44.0589 59 54C59 63.9411 67.0589 72 77 72Z" fill="white"/>
<path fill-rule="evenodd" clip-rule="evenodd" d="M76.9529 64.8031C74.4483 64.8031 72.1487 63.9426 70.3087 62.511L85.514 47.3087C86.9426 49.1487 87.8031 51.4483 87.8031 53.9529C87.8031 59.9371 82.9371 64.8031 76.9529 64.8031ZM66.1028 53.9529C66.1028 47.9688 70.9688 43.1028 76.9529 43.1028C79.456 43.1028 81.7556 43.9633 83.5956 45.3919L68.3919 60.5941C66.9633 58.7556 66.1028 56.456 66.1028 53.9529ZM76.9529 40.3903C69.4739 40.3903 63.3902 46.4739 63.3902 53.9529C63.3902 61.432 69.4739 67.5156 76.9529 67.5156C84.432 67.5156 90.5156 61.432 90.5156 53.9529C90.5156 46.4739 84.432 40.3903 76.9529 40.3903Z" fill="#F1342F"/>
<path d="M25 46.8806V31.0016C25 30.2097 25.8767 29.732 26.5421 30.1613L39.1639 38.3044C39.7828 38.7037 39.7723 39.6124 39.1443 39.9973L26.5226 47.7332C25.8562 48.1416 25 47.6622 25 46.8806Z" fill="#00AEEF"/>
</svg>
